<svg class="icon" style="width: 1em; height: 1em;vertical-align: middle;fill: currentColor;overflow: hidden;" viewBox="0 0 1024 1024" version="1.1" xmlns="http://www.w3.org/2000/svg" p-id="1589"><path d="M749.714286 563.2c-3.657143 3.657143-5.485714 7.314286-5.485715 12.8 0 5.485714 1.828571 9.142857 5.485715 12.8 3.657143 3.657143 7.314286 5.485714 12.8 5.485714 5.485714 0 9.142857-1.828571 12.8-5.485714 3.657143-3.657143 5.485714-7.314286 5.485714-12.8 0-5.485714-1.828571-9.142857-5.485714-12.8-5.485714-7.314286-18.285714-7.314286-25.6 0z" fill="#1A1A1A" p-id="1590"></path><path d="M786.285714 279.771429C707.657143 201.142857 583.314286 197.485714 499.2 266.971429l-1.828571-1.828572c-82.285714-67.657143-206.628571-64-285.257143 14.628572-82.285714 82.285714-82.285714 215.771429 0 298.057142l239.542857 239.542858c12.8 12.8 31.085714 20.114286 47.542857 20.114285s34.742857-7.314286 47.542857-20.114285l186.514286-186.514286c7.314286-7.314286 7.314286-18.285714 0-25.6s-18.285714-7.314286-25.6 0L521.142857 789.942857c-12.8 12.8-32.914286 12.8-45.714286 0l-237.714285-237.714286c-67.657143-67.657143-67.657143-179.2 0-246.857142 67.657143-67.657143 179.2-67.657143 246.857143 0l12.8 10.971428 1.828571 1.828572 12.8-12.8c67.657143-67.657143 179.2-67.657143 246.857143 0 47.542857 47.542857 64 118.857143 42.057143 181.028571-3.657143 9.142857 1.828571 20.114286 10.971428 23.771429 9.142857 3.657143 20.114286-1.828571 23.771429-10.971429 27.428571-76.8 7.314286-162.742857-49.371429-219.428571z" fill="#1A1A1A" p-id="1591"></path></svg>